<?xml version="1.0" encoding="UTF-8"?>
<svg version="1.1" xmlns="http://www.w3.org/2000/svg" width="512" height="512">
<path d="M0 0 C3.22154537 1.44389083 5.58746389 3.25838222 8.25 5.5625 C29.88816834 23.07003415 55.81729444 29.15073408 83 31 C82.93071289 31.59022949 82.86142578 32.18045898 82.79003906 32.78857422 C81.29297469 45.26094734 81.29297469 45.26094734 85 57 C85.33 57.66 85.66 58.32 86 59 C90.01958762 57.55707111 93.31093979 55.58976472 96.875 53.25 C113.6671806 42.62676928 133.75884234 37.98630465 153 34 C153.07347656 32.66195312 153.07347656 32.66195312 153.1484375 31.296875 C153.22320312 30.12640625 153.29796875 28.9559375 153.375 27.75 C153.44460937 26.58984375 153.51421875 25.4296875 153.5859375 24.234375 C153.9654553 21.26983975 154.39642327 19.4814472 156 17 C159.21955988 14.70031437 162.12559532 14.44651362 166 15 C168.875 16.75 168.875 16.75 171 20 C171.41449604 24.03477791 171.28999494 27.95940379 171 32 C172.60488281 31.75636719 172.60488281 31.75636719 174.2421875 31.5078125 C179.86400896 30.80725087 185.46752769 30.85417495 191.125 30.875 C192.71248047 30.86919922 192.71248047 30.86919922 194.33203125 30.86328125 C199.32769333 30.86954933 204.09343258 30.93040226 209 32 C208.91298828 30.78763672 208.91298828 30.78763672 208.82421875 29.55078125 C208.45610878 20.83183363 208.45610878 20.83183363 211.125 16.75 C214.49009839 14.70167924 216.12859307 14.42340748 220 15 C222.51740865 15.83913622 223.62868871 16.42541611 225.0703125 18.65625 C226.2818427 21.71052782 226.42855815 24.47596923 226.625 27.75 C226.73714844 29.50570312 226.73714844 29.50570312 226.8515625 31.296875 C226.90054687 32.18890625 226.94953125 33.0809375 227 34 C227.57218262 34.12004395 228.14436523 34.24008789 228.73388672 34.36376953 C250.61676731 39.00771085 272.02519996 44.63219148 290.3984375 57.96875 C291.96278338 59.18045977 291.96278338 59.18045977 294 59 C299.88267534 50.52894751 298.2564177 40.73723715 297 31 C298.01835937 30.97421875 299.03671875 30.9484375 300.0859375 30.921875 C327.04425233 29.95873291 352.31746927 21.17630724 373.29296875 4.1015625 C375.50748787 2.3823543 377.4459015 1.10941749 380 0 C387.3872853 18.55280048 389.62886099 36.98617216 382 56 C377.61585701 66.02260482 371.67634273 73.41113696 364 81 C363.28070313 81.72960937 362.56140625 82.45921875 361.8203125 83.2109375 C351.69791564 92.87496167 338.88973575 98.93546592 326 104 C326.99 107.3 327.98 110.6 329 114 C334.30186559 114.09918586 339.60318618 114.17161755 344.90576172 114.21972656 C346.70794081 114.23979033 348.51005521 114.26704813 350.31201172 114.30175781 C352.90869136 114.35050829 355.50450729 114.37302082 358.1015625 114.390625 C358.9017984 114.41127014 359.7020343 114.43191528 360.52651978 114.45318604 C367.50177318 114.4559577 371.23078284 111.80519 376.15625 106.99145508 C377.27541497 105.83857718 378.38980092 104.68104564 379.5 103.51953125 C380.72873911 102.26065025 381.95791901 101.00219935 383.1875 99.74414062 C385.10173401 97.77402555 387.01176209 95.80024732 388.9140625 93.81860352 C390.7648786 91.89519239 392.63108271 89.98783589 394.5 88.08203125 C395.06267578 87.48727493 395.62535156 86.89251862 396.20507812 86.27973938 C399.61045214 82.83133523 401.91961036 81.06864195 407 81 C412.61176471 83.22352941 412.61176471 83.22352941 414 86 C414.89696281 92.57007605 414.89696281 92.57007605 412.77001953 95.96081543 C410.95535774 98.03681501 409.05288671 99.95109635 407.0625 101.859375 C406.34900391 102.57103821 405.63550781 103.28270142 404.90039062 104.01593018 C403.38978689 105.51447509 401.86949767 107.00331124 400.34033203 108.48291016 C398.01474858 110.73571298 395.72255278 113.01864958 393.43359375 115.30859375 C391.95759704 116.76491638 390.47978869 118.21940562 389 119.671875 C388.31945557 120.34796814 387.63891113 121.02406128 386.93774414 121.72064209 C379.116923 129.23910206 372.03138451 132.16454892 361.17578125 132.09765625 C360.31438034 132.0962413 359.45297943 132.09482635 358.56547546 132.09336853 C355.81444831 132.0877714 353.06350256 132.07521946 350.3125 132.0625 C348.4472668 132.05748463 346.58203233 132.05292179 344.71679688 132.04882812 C340.14449989 132.03780292 335.57226375 132.02054027 331 132 C331.33 132.66 331.66 133.32 332 134 C332.86491141 145.80704649 330.98553785 157.60979679 328 169 C328.92224365 169.01458252 329.8444873 169.02916504 330.79467773 169.04418945 C334.25601518 169.10568474 337.71661453 169.17991477 341.17749023 169.26245117 C342.66794757 169.29545795 344.15852262 169.32356327 345.64916992 169.34643555 C357.89849439 169.5394353 367.04893104 170.23804364 376.25 179.0078125 C382.10073509 185.15626199 387.01736339 192.14952683 392 199 C392.71285156 199.95261719 393.42570312 200.90523437 394.16015625 201.88671875 C396.45704299 205.08498421 397.86729115 207.37264907 398.6875 211.25 C397.71214956 215.15140176 396.24268638 216.65422687 393 219 C388.95482677 219.65011713 386.94312406 219.65074061 383.54296875 217.3046875 C380.88781219 214.89832442 378.91091483 212.46406047 376.8125 209.5625 C375.65621094 207.99048828 375.65621094 207.99048828 374.4765625 206.38671875 C374.07469727 205.83677246 373.67283203 205.28682617 373.25878906 204.72021484 C371.08944588 201.75567023 368.89784584 198.80907646 366.6875 195.875 C366.27927002 195.3188501 365.87104004 194.7627002 365.45043945 194.18969727 C363.18123081 191.18785441 361.54256274 189.2714492 358 188 C355.07122063 187.76312944 352.22838814 187.62771428 349.296875 187.5859375 C348.45908508 187.56657135 347.62129517 187.5472052 346.75811768 187.5272522 C344.08884787 187.46759276 341.41953461 187.42112587 338.75 187.375 C336.93748146 187.33680764 335.12498082 187.29775518 333.3125 187.2578125 C328.87514585 187.16190248 324.43770675 187.0778212 320 187 C319.70561035 187.76530029 319.4112207 188.53060059 319.10791016 189.3190918 C317.83338675 192.40316883 316.19380577 195.01692817 314.375 197.8125 C313.42753906 199.27623047 313.42753906 199.27623047 312.4609375 200.76953125 C311.97882813 201.50558594 311.49671875 202.24164063 311 203 C311.6290625 203.44988281 312.258125 203.89976562 312.90625 204.36328125 C325.05064007 213.48986355 331.92277081 224.36922839 334.375 239.3125 C335.54567874 249.66046391 334.50864093 259.04845849 329 268 C325.79158965 269.60420518 322.4806013 269.47462745 319 269 C316.5 267.5 316.5 267.5 315 265 C314.47512585 260.10117461 315.18409968 255.94092403 316.125 251.125 C317.72658121 241.88689387 315.7666186 235.09967149 310.7109375 227.26953125 C307.63302302 223.18672688 304.44696504 219.95204766 299.640625 218.08203125 C295.7192003 217.96021184 294.26158697 219.7365298 291.3125 222.25 C257.85137327 249.55853402 215.67561718 259.94210366 173.05664062 256.78173828 C167.3039111 256.18223222 161.65586646 255.19904369 156 254 C155.22430664 253.83902832 154.44861328 253.67805664 153.64941406 253.51220703 C129.13113982 248.23220631 104.06228033 236.63290697 85.41015625 219.640625 C83.13710262 217.75583419 83.13710262 217.75583419 80.46875 218.03515625 C73.19242276 220.87891073 67.97785377 227.30153995 64.87109375 234.2890625 C62.31900367 242.2314415 62.76944295 249.12744572 65 257 C65.51191236 260.92225808 65.59630274 264.0061621 63.5 267.5 C59.96259709 269.62244174 57.02307126 269.78802427 53 269 C48.40609068 266.14432664 47.26735013 261.0060088 46 256 C45.58455249 252.71593889 45.52210602 249.49499727 45.5625 246.1875 C45.57007324 245.31311279 45.57764648 244.43872559 45.58544922 243.5378418 C45.96687602 228.48818799 52.40688159 218.30534427 62.75390625 207.84765625 C65.09008795 205.92589287 67.14712865 204.95764223 70 204 C69.36191406 203.01257813 68.72382813 202.02515625 68.06640625 201.0078125 C67.23171752 199.71357605 66.39708502 198.41930333 65.5625 197.125 C65.14162109 196.47402344 64.72074219 195.82304687 64.28710938 195.15234375 C61.11328125 190.2265625 61.11328125 190.2265625 60 188 C54.67979978 187.92570085 49.35990331 187.87132753 44.03930664 187.83520508 C42.23033383 187.82014245 40.4213974 187.79968823 38.61254883 187.77368164 C36.00853485 187.7371868 33.4050048 187.72024843 30.80078125 187.70703125 C29.99538406 187.69154739 29.18998688 187.67606354 28.36018372 187.66011047 C23.72848971 187.65873029 20.75487032 187.99970102 17 191 C15.33070287 192.71207595 15.33070287 192.71207595 13.94921875 194.66015625 C13.41917236 195.36720703 12.88912598 196.07425781 12.34301758 196.80273438 C11.79669678 197.54845703 11.25037598 198.29417969 10.6875 199.0625 C9.5397902 200.59559713 8.3913544 202.12815102 7.2421875 203.66015625 C6.68885742 204.40281738 6.13552734 205.14547852 5.56542969 205.91064453 C3.52038436 208.64013579 1.43080236 211.32690416 -0.6875 214 C-1.28949219 214.763125 -1.89148438 215.52625 -2.51171875 216.3125 C-4.79057223 218.89639686 -5.86524363 218.99001805 -9.375 219.25 C-13 219 -13 219 -15.375 218 C-17.34766956 215.572099 -17.82390096 213.29032024 -18.3125 210.23046875 C-17.54231679 204.73328609 -12.59134559 200.0499337 -9.25 195.75 C-8.81389404 195.18788818 -8.37778809 194.62577637 -7.9284668 194.04663086 C-7.04178027 192.90572743 -6.15401692 191.76566 -5.26513672 190.62646484 C-4.10775256 189.13852713 -2.96149349 187.64195302 -1.81640625 186.14453125 C4.41248251 178.11861415 9.80006332 172.17515591 20 170 C25.51907024 169.5096328 31.02470098 169.3974712 36.5625 169.3125 C38.06317975 169.27926684 39.56383211 169.24477181 41.06445312 169.20898438 C44.70943454 169.12477196 48.35449024 169.05764281 52 169 C51.79141357 168.0502832 51.58282715 167.10056641 51.36791992 166.12207031 C51.09568604 164.87006836 50.82345215 163.61806641 50.54296875 162.328125 C50.13727661 160.4704248 50.13727661 160.4704248 49.72338867 158.57519531 C48.05808663 150.34479267 46.29636312 140.11091063 49 132 C47.86570557 132.02094727 46.73141113 132.04189453 45.56274414 132.06347656 C41.31922227 132.13635503 37.07575474 132.1819722 32.83178711 132.21972656 C31.00161407 132.23973374 29.17150408 132.26694851 27.34155273 132.30175781 C24.69759488 132.35076003 22.05448835 132.37307761 19.41015625 132.390625 C18.20021751 132.42159271 18.20021751 132.42159271 16.96583557 132.45318604 C6.82035256 132.45711512 0.08342225 127.82222105 -7 121 C-8.05146411 120.01122261 -9.10360279 119.0231623 -10.15625 118.03564453 C-13.18315105 115.18173204 -16.16827546 112.28783068 -19.13916016 109.37573242 C-20.38619835 108.16059825 -21.6412144 106.95360123 -22.90380859 105.75463867 C-24.74711662 104.00256701 -26.56284848 102.22561635 -28.375 100.44140625 C-29.22324341 99.65039268 -29.22324341 99.65039268 -30.08862305 98.84339905 C-33.00857167 95.90856847 -34.35272867 93.96921063 -34.453125 89.74975586 C-34 86 -34 86 -32.375 83.5625 C-29.4340868 81.62768868 -27.52349544 81.07190807 -24 81 C-19.33777333 83.24127327 -16.08210613 86.6901311 -12.52734375 90.34765625 C-11.61995201 91.26640785 -11.61995201 91.26640785 -10.69422913 92.20372009 C-8.77040468 94.15187927 -6.85319476 96.10634808 -4.9375 98.0625 C-2.41072611 100.64248913 0.12259751 103.21577885 2.66015625 105.78515625 C3.23629166 106.37788834 3.81242706 106.97062042 4.40602112 107.58131409 C8.54911352 111.77470804 10.83368512 113.87523701 16.94238281 114.22705078 C18.52933211 114.22673555 20.11630435 114.21552087 21.703125 114.1953125 C22.95980988 114.19106766 22.95980988 114.19106766 24.24188232 114.18673706 C26.91140163 114.17556349 29.5805825 114.15046421 32.25 114.125 C34.06249515 114.11496654 35.87499556 114.10584133 37.6875 114.09765625 C42.12512993 114.0756334 46.56250763 114.04112304 51 114 C52.32 110.37 53.64 106.74 55 103 C54.16597656 102.9071875 53.33195312 102.814375 52.47265625 102.71875 C48.45226975 101.88663401 45.06373518 100.35458549 41.4375 98.5 C40.73786133 98.14325195 40.03822266 97.78650391 39.31738281 97.41894531 C18.96764019 86.7956585 3.60304008 72.01179769 -4 50 C-5.95744052 43.55074862 -6.38500932 37.60014841 -6.375 30.875 C-6.3747583 29.35737061 -6.3747583 29.35737061 -6.37451172 27.80908203 C-6.22111312 17.6928478 -3.80108064 9.34860373 0 0 Z " fill="#2A8BFF" transform="translate(66,210)"/>
<path d="M0 0 C0 3 0 3 -2.45703125 5.4609375 C-3.57126922 6.43716575 -4.69009576 7.40817189 -5.8125 8.375 C-24.29023491 24.92860297 -40.24348458 47.90348824 -42.18017578 73.36914062 C-43.37535217 96.03893799 -37.05679616 115.71669055 -22 133 C-19.03866658 135.66123654 -18.51247307 136.00883574 -14.375 135.9375 C-11.00979764 135.34043785 -11.00979764 135.34043785 -9.5 133.25 C-8.56622884 129.04802978 -9.71470409 126.45920138 -11.9609375 122.84375 C-12.75722342 121.72314895 -13.56216004 120.60865197 -14.375 119.5 C-22 108.89879032 -22 108.89879032 -22 106 C-20.3125 104.73828125 -20.3125 104.73828125 -18 103.3125 C-1.69815135 92.63988346 6.67823996 77.40460019 10.75 58.5 C11.86358854 52.48161697 12.47687519 46.52401404 12.7890625 40.4140625 C13 38 13 38 14 37 C17.26274949 36.55969817 18.65816231 36.77247459 21.4296875 38.6171875 C36.79858621 52.8076403 45.92819475 72.17076119 47.12426758 93.18310547 C47.94999938 117.77099534 42.08150066 138.79018817 25.77734375 157.55859375 C11.68935429 172.29259331 -9.30838877 182.88086396 -29.7980957 184.17700195 C-62.24589466 184.86796637 -89.08325585 175.96071567 -112.8203125 153.30859375 C-129.89544044 135.37187679 -135.71438739 115.19233528 -135.3125 91.0625 C-134.19534965 61.23458577 -116.6941597 32.65060597 -95.6640625 12.390625 C-68.32457354 -12.14275806 -32.72055588 -14.86744066 0 0 Z " fill="#13A8FF" transform="translate(185,42)"/>
<path d="M0 0 C2.5100729 1.95965256 4.92325826 3.99439933 7.32421875 6.0859375 C8.14535156 6.77429688 8.96648437 7.46265625 9.8125 8.171875 C30.79830631 26.25295851 45.51873593 52.79489336 50.32421875 80.0859375 C51.97822738 105.46869608 47.62281628 126.88775637 30.68212891 146.56298828 C13.85807126 165.43182532 -11.35445154 178.52047981 -36.69042969 180.29736328 C-48.89873797 180.81769906 -60.94034719 180.80215829 -72.67578125 177.0859375 C-74.27679688 176.59287109 -74.27679688 176.59287109 -75.91015625 176.08984375 C-96.48358011 168.97773909 -114.40440858 153.29968182 -123.98828125 133.7734375 C-127.98680822 124.5323974 -131.25442348 114.19852398 -131.67578125 104.0859375 C-131.72734375 102.9515625 -131.77890625 101.8171875 -131.83203125 100.6484375 C-132.51720143 78.01800258 -126.77435815 56.08114318 -111.05078125 39.28125 C-104.67841283 33.19336231 -104.67841283 33.19336231 -100.94140625 32.79296875 C-98.67578125 33.0859375 -98.67578125 33.0859375 -97.67578125 34.0859375 C-97.37846088 35.72317664 -97.13482024 37.37022308 -96.9140625 39.01953125 C-94.07786177 59.08580791 -90.26518422 83.54167472 -73.16796875 97.0703125 C-72.30429687 97.65296875 -71.440625 98.235625 -70.55078125 98.8359375 C-69.68195313 99.42890625 -68.813125 100.021875 -67.91796875 100.6328125 C-65.7613395 102.0894705 -65.7613395 102.0894705 -63.67578125 103.0859375 C-64.1260233 109.16420522 -68.33634208 113.45768829 -71.90234375 118.11523438 C-75.00962765 122.34514469 -75.00962765 122.34514469 -75.69921875 127.46484375 C-74.84741944 130.3855673 -74.84741944 130.3855673 -71.67578125 132.0859375 C-67.78070215 131.97019801 -65.45364943 131.70664725 -62.375 129.25 C-48.5675239 111.82308842 -38.53397094 90.59473986 -41.08203125 67.88671875 C-44.23786619 45.24927527 -55.7979444 27.03172515 -71.67578125 11.0859375 C-72.4440625 10.291875 -73.21234375 9.4978125 -74.00390625 8.6796875 C-77.70967863 4.88905011 -81.53668152 1.39721729 -85.67578125 -1.9140625 C-82.94498797 -5.39244938 -79.12809202 -6.51629179 -75.11328125 -7.9765625 C-74.44748047 -8.23244141 -73.78167969 -8.48832031 -73.09570312 -8.75195312 C-49.12588832 -17.64066424 -20.82959368 -14.90000132 0 0 Z " fill="#416FFF" transform="translate(411.67578125,45.9140625)"/>
</svg>
