<?xml version="1.0" encoding="UTF-8"?>
<svg version="1.1" xmlns="http://www.w3.org/2000/svg" width="200" height="200">
<path d="M0 0 C66 0 132 0 200 0 C200 66 200 132 200 200 C134 200 68 200 0 200 C0 134 0 68 0 0 Z " fill="#282828" transform="translate(0,0)"/>
<path d="M0 0 C2.73120117 1.25244141 2.73120117 1.25244141 5.54296875 2.8515625 C7.1350415 3.7477832 7.1350415 3.7477832 8.75927734 4.66210938 C9.89059082 5.30986328 11.0219043 5.95761719 12.1875 6.625 C13.37389155 7.29341965 14.56091438 7.96071995 15.74853516 8.62695312 C21.42407122 11.81588499 27.07800075 15.04181398 32.72169495 18.28671265 C35.17720078 19.69511545 37.63880747 21.09262304 40.10147095 22.48846436 C41.8503157 23.48592127 43.58968177 24.49993812 45.32885742 25.51416016 C46.39338135 26.1179248 47.45790527 26.72168945 48.5546875 27.34375 C49.48780762 27.88193359 50.42092773 28.42011719 51.38232422 28.97460938 C54.52658493 30.20627278 55.82528838 30.06239001 59 29 C60.78458377 28.17395935 62.53743815 27.27751462 64.26171875 26.33203125 C65.28620117 25.77475342 66.31068359 25.21747559 67.36621094 24.64331055 C69.01024902 23.73705933 69.01024902 23.73705933 70.6875 22.8125 C72.42305752 21.86877521 74.15861842 20.92505659 75.89437866 19.98170471 C80.15776545 17.66108981 84.41222833 15.32421232 88.66455078 12.98339844 C91.04855198 11.67110438 93.43478793 10.36305029 95.82348633 9.05932617 C98.06849576 7.83292879 100.30939992 6.59897937 102.5456543 5.35668945 C103.56699463 4.79941162 104.58833496 4.24213379 105.640625 3.66796875 C106.53297852 3.17578857 107.42533203 2.6836084 108.34472656 2.17651367 C111.28890337 0.87199105 113.79231563 0.26360015 117 0 C119.9921875 1.58203125 119.9921875 1.58203125 122.875 3.8125 C123.84179688 4.54082031 124.80859375 5.26914062 125.8046875 6.01953125 C126.89136719 6.99986328 126.89136719 6.99986328 128 8 C128 8.66 128 9.32 128 10 C127.14583496 10.45213867 126.29166992 10.90427734 125.41162109 11.37011719 C104.68524713 22.33852887 104.68524713 22.33852887 84.0625 33.5 C82.75998291 34.20950806 82.75998291 34.20950806 81.43115234 34.93334961 C77.30094556 37.18414242 73.18542142 39.45628071 69.08984375 41.76953125 C67.56006239 42.61748806 66.03012322 43.46516023 64.5 44.3125 C63.82332275 44.704375 63.14664551 45.09625 62.44946289 45.5 C59.63562488 47.04139733 57.40502585 47.98709751 54.1796875 48.08984375 C49.30789792 46.4200289 45.05233815 43.85561454 40.625 41.25 C38.55843752 40.05660731 36.49069131 38.86526252 34.421875 37.67578125 C33.36033203 37.06428223 32.29878906 36.4527832 31.20507812 35.82275391 C26.1406722 32.94258521 21.00938204 30.19036178 15.875 27.4375 C4.80433518 21.48468064 -6.12142492 15.29604401 -17 9 C-17 8.01 -17 7.02 -17 6 C-14.8046875 4.140625 -14.8046875 4.140625 -11.875 2.25 C-10.92367187 1.61578125 -9.97234375 0.9815625 -8.9921875 0.328125 C-5.33017394 -1.29731183 -3.85108059 -0.92787801 0 0 Z " fill="#FBFBFB" transform="translate(45,37)"/>
<path d="M0 0 C3.68157022 1.38126429 7.0022445 3.04808503 10.40234375 5.01953125 C11.44656494 5.62321533 12.49078613 6.22689941 13.56665039 6.84887695 C15.23522095 7.82087036 15.23522095 7.82087036 16.9375 8.8125 C18.1033284 9.48870791 19.26926405 10.16473094 20.43530273 10.84057617 C29.61623457 16.16842114 38.76180984 21.55606811 47.890625 26.97265625 C51.29116108 28.99035076 54.6971789 30.99818047 58.109375 32.99609375 C58.90529053 33.46233154 59.70120605 33.92856934 60.52124023 34.40893555 C62.00963542 35.28008683 63.49869374 36.15010646 64.98852539 37.01879883 C69.88975136 39.88975136 69.88975136 39.88975136 71 41 C71.09511266 43.64738089 71.12555635 46.26859001 71.11352539 48.91625977 C71.11367142 49.74545929 71.11381744 50.57465881 71.1139679 51.4289856 C71.11326851 54.18315198 71.10547493 56.93725161 71.09765625 59.69140625 C71.09579216 61.59569766 71.09436822 63.49998955 71.09336853 65.40428162 C71.08954263 70.42667963 71.07971173 75.44904892 71.06866455 80.47143555 C71.05845198 85.5922812 71.05387124 90.71313148 71.04882812 95.83398438 C71.03808953 105.88933557 71.02101224 115.9446654 71 126 C67.45756548 124.63408831 64.07372071 123.09068516 60.6875 121.375 C59.80449219 120.92898437 58.92148438 120.48296875 58.01171875 120.0234375 C57.34785156 119.68570313 56.68398437 119.34796875 56 119 C56.04742844 118.17109253 56.09485687 117.34218506 56.14372253 116.48815918 C56.56994081 108.60596931 56.86104321 100.73207536 57.00777721 92.8395462 C57.08780302 88.7816074 57.21635692 84.73844618 57.46411133 80.68701172 C59.03605944 62.82753125 59.03605944 62.82753125 52.45779419 47.02139282 C46.36196013 41.73861204 38.98501682 38.58639828 31.58192444 35.55940247 C25.60062372 32.95542373 20.14078025 29.55665236 14.5625 26.1875 C12.6079075 25.05178203 10.65129382 23.91952449 8.69140625 22.79296875 C2.33175181 19.12294312 2.33175181 19.12294312 0 17 C-0.45410156 15.09887695 -0.45410156 15.09887695 -0.390625 12.98828125 C-0.37773437 12.23095703 -0.36484375 11.47363281 -0.3515625 10.69335938 C-0.31804688 9.90767578 -0.28453125 9.12199219 -0.25 8.3125 C-0.23195313 7.51521484 -0.21390625 6.71792969 -0.1953125 5.89648438 C-0.14822247 3.93047551 -0.07647899 1.96508506 0 0 Z " fill="#FBFBFB" transform="translate(19,60)"/>
<path d="M0 0 C0.95034356 5.68886215 1.73835664 11.39188737 0 17 C-3.82468581 21.08417777 -8.26268535 23.19269942 -13.25537109 25.6171875 C-17.53926305 27.77551912 -21.64914123 30.22067979 -25.78955078 32.64013672 C-29.04972995 34.5445236 -32.32574458 36.41859874 -35.60546875 38.2890625 C-36.58585114 38.87200073 -37.56623352 39.45493896 -38.57632446 40.05554199 C-42 42 -42 42 -45.41589355 43.55429077 C-52.32326851 46.93514068 -52.32326851 46.93514068 -56.17585754 53.37905884 C-56.6038929 57.59979582 -56.62254056 61.64325496 -56.48828125 65.875 C-56.48646976 67.41056688 -56.4904014 68.94615027 -56.49980164 70.48168945 C-56.50912806 74.50149829 -56.44104502 78.51631832 -56.35620117 82.53509521 C-56.28334702 86.64433369 -56.28453885 90.75349876 -56.27929688 94.86328125 C-56.25821857 102.91091221 -56.14843102 110.95370944 -56 119 C-60.95 121.31 -65.9 123.62 -71 126 C-71.29414591 115.05568368 -71.53242978 104.11400601 -71.67355824 93.16662598 C-71.74130767 88.08273078 -71.83311509 83.00168716 -71.98071289 77.91943359 C-72.12236905 73.01083599 -72.19976878 68.10497272 -72.23340416 63.19448853 C-72.2573579 61.32505218 -72.3041439 59.45575976 -72.37449074 57.5874939 C-72.80323042 45.72514467 -72.80323042 45.72514467 -71 41 C-67.10758187 36.97886113 -63.18692649 35.13768533 -58 33 C-56.74729449 32.28957913 -55.50567037 31.55807044 -54.29052734 30.78515625 C-53.3155127 30.21667969 -52.34049805 29.64820312 -51.3359375 29.0625 C-50.20647705 28.40241943 -49.0770166 27.74233887 -47.91333008 27.06225586 C-46.73392183 26.37477701 -45.55447768 25.68735973 -44.375 25 C-41.84440885 23.5232347 -39.31453133 22.0452534 -36.78515625 20.56640625 C-36.14646103 20.19302628 -35.50776581 19.8196463 -34.84971619 19.43495178 C-30.28041637 16.75968568 -25.72831126 14.05662727 -21.18359375 11.33984375 C-20.55882141 10.96695221 -19.93404907 10.59406067 -19.29034424 10.20986938 C-15.65934507 8.04281767 -15.65934507 8.04281767 -12.03363037 5.86694336 C-10.38534217 4.87500369 -8.73376817 3.88853006 -7.08203125 2.90234375 C-6.14593018 2.34023193 -5.2098291 1.77812012 -4.24536133 1.19897461 C-2 0 -2 0 0 0 Z " fill="#FBFBFB" transform="translate(181,60)"/>
<path d="M0 0 C4.29746569 1.93156009 8.37723495 4.1515058 12.47265625 6.4765625 C13.27896484 6.92773438 14.08527344 7.37890625 14.91601562 7.84375 C18.11345418 9.64048189 21.23148417 11.44078111 24.28515625 13.4765625 C27.74380854 13.09968428 30.52209445 11.38343455 33.53125 9.71875 C34.53349609 9.17605469 35.53574219 8.63335937 36.56835938 8.07421875 C38.67151551 6.92562203 40.77050046 5.76935447 42.86523438 4.60546875 C43.86876953 4.06535156 44.87230469 3.52523438 45.90625 2.96875 C46.81818115 2.46714355 47.7301123 1.96553711 48.66967773 1.44873047 C51.74033556 0.30737329 53.20102582 0.48006665 56.28515625 1.4765625 C58.9609375 3.03515625 58.9609375 3.03515625 61.59765625 4.9140625 C62.92216797 5.84025391 62.92216797 5.84025391 64.2734375 6.78515625 C64.93730469 7.34332031 65.60117188 7.90148438 66.28515625 8.4765625 C66.28515625 9.1365625 66.28515625 9.7965625 66.28515625 10.4765625 C65.49455811 10.89953613 64.70395996 11.32250977 63.8894043 11.75830078 C60.90158585 13.35707063 57.91398205 14.95624025 54.92651367 16.55566406 C53.64371927 17.24234296 52.36084425 17.92887128 51.07788086 18.61523438 C49.83159863 19.2819978 48.58551422 19.94913112 47.33963013 20.61663818 C46.10348253 21.27809397 44.8664002 21.93780589 43.62838745 22.59576416 C40.75036497 24.12992239 37.90517057 25.6983901 35.08837891 27.34277344 C34.12851074 27.8999707 33.16864258 28.45716797 32.1796875 29.03125 C30.93409058 29.77737549 30.93409058 29.77737549 29.66333008 30.53857422 C26.67149412 31.71860027 25.32299436 31.46319821 22.28515625 30.4765625 C20.50592438 29.65282195 18.75794558 28.75962176 17.0390625 27.81640625 C16.04261719 27.27330811 15.04617187 26.73020996 14.01953125 26.1706543 C12.9728125 25.590979 11.92609375 25.01130371 10.84765625 24.4140625 C9.24470703 23.53584839 9.24470703 23.53584839 7.609375 22.63989258 C-0.21607218 18.34051516 -8.00034806 13.9721577 -15.71484375 9.4765625 C-13.08032603 6.74667763 -10.4211115 4.31791298 -7.33984375 2.1015625 C-6.24542969 1.28558594 -6.24542969 1.28558594 -5.12890625 0.453125 C-2.71484375 -0.5234375 -2.71484375 -0.5234375 0 0 Z " fill="#FAFAFA" transform="translate(74.71484375,14.5234375)"/>
<path d="M0 0 C3.40240665 1.29387825 6.53585809 2.76904826 9.6953125 4.57421875 C10.57703125 5.07759766 11.45875 5.58097656 12.3671875 6.09960938 C13.27726562 6.62361328 14.18734375 7.14761719 15.125 7.6875 C16.011875 8.19216797 16.89875 8.69683594 17.8125 9.21679688 C19.62726848 10.25700113 21.42547089 11.32659124 23.20678711 12.4230957 C25.97589402 14.09009701 25.97589402 14.09009701 29.10766602 15.11401367 C32.79020839 16.67553986 34.59065412 17.76946317 37 21 C38.8750468 28.75333928 38.02503384 37.04337665 37.6875 44.9375 C37.63229549 47.16980216 37.58211019 49.40223446 37.53710938 51.63476562 C37.41616364 57.09269095 37.23240075 62.5457445 37 68 C33.14974121 67.39644592 30.13898841 66.23227397 26.6875 64.4375 C25.80449219 63.98246094 24.92148437 63.52742188 24.01171875 63.05859375 C23.01591797 62.53458984 23.01591797 62.53458984 22 62 C22.07444336 61.0934668 22.14888672 60.18693359 22.22558594 59.25292969 C24.00785571 42.53881207 24.00785571 42.53881207 19.00585938 27.32275391 C14.21681958 23.31404589 8.79232415 20.79062073 2.93359375 18.70727539 C1 18 1 18 0 17 C-0.07325168 14.13732433 -0.09238205 11.299281 -0.0625 8.4375 C-0.05798828 7.63119141 -0.05347656 6.82488281 -0.04882812 5.99414062 C-0.03700518 3.99606244 -0.01906914 1.99802217 0 0 Z " fill="#FBFBFB" transform="translate(19,101)"/>
<path d="M0 0 C1.54404898 11.61335983 1.54404898 11.61335983 0 17 C-4.15449744 21.34700778 -9.51240618 23.82488329 -15.1875 25.73706055 C-17.82205991 26.87703697 -19.2052023 27.73516229 -21 30 C-22.16178357 35.43649126 -22.07525313 40.77542239 -22 46.3125 C-22.00809564 47.83140384 -22.01977634 49.35029308 -22.03515625 50.86914062 C-22.06493977 54.58016245 -22.0456459 58.28905203 -22 62 C-24.12282669 63.00460531 -26.24833021 64.00355602 -28.375 65 C-29.55835938 65.556875 -30.74171875 66.11375 -31.9609375 66.6875 C-35 68 -35 68 -37 68 C-37.33089314 61.45439919 -37.55774294 54.91096265 -37.71411133 48.35888672 C-37.77930823 46.13313246 -37.86789945 43.90793135 -37.98071289 41.68408203 C-38.8914917 23.26244727 -38.8914917 23.26244727 -34.45922852 17.9609375 C-31.0558761 15.86110985 -27.7303795 14.42812875 -24 13 C-21.97219406 11.83221887 -19.96650859 10.62493051 -17.98828125 9.375 C-16.09706136 8.24881156 -14.20514188 7.12379705 -12.3125 6 C-11.33861328 5.41605469 -10.36472656 4.83210938 -9.36132812 4.23046875 C-8.43384766 3.68003906 -7.50636719 3.12960938 -6.55078125 2.5625 C-5.72231689 2.06878906 -4.89385254 1.57507813 -4.0402832 1.06640625 C-2 0 -2 0 0 0 Z " fill="#FBFBFB" transform="translate(181,101)"/>
</svg>
